<?xml version="1.0" encoding="UTF-8" standalone="no"?>
<!-- Created with Inkscape (http://www.inkscape.org/) -->

<svg
   width="210mm"
   height="297mm"
   viewBox="0 0 210 297"
   version="1.1"
   id="svg5"
   xmlns="http://www.w3.org/2000/svg"
   xmlns:svg="http://www.w3.org/2000/svg">
  <defs
     id="defs2" />
  <g
     id="layer1">
    <g
       aria-label=" ארנסטו"
       transform="matrix(1.233531,0,0,0.8106809,-56.239549,-14.70315)"
       id="text113"
       style="font-size:21.797px;line-height:1.25;stroke-width:0.544925">
      <path
         d="m 83.090131,19.93038 3.19292,4.629734 H 82.32383 l -3.725073,-5.364106 q -0.585369,0.681156 -0.585369,2.213758 v 3.150348 h -3.490926 v -2.352118 q 0,-0.979162 0.170289,-1.766749 0.180932,-0.787587 0.41508,-1.266525 0.24479,-0.478938 0.649227,-0.883374 0.41508,-0.404437 0.713085,-0.596012 0.308649,-0.202218 0.776944,-0.436366 l -3.171634,-4.619091 h 3.948578 l 3.725074,5.364106 q 0.585368,-0.681157 0.585368,-2.213758 v -3.150348 h 3.501569 v 2.352118 q 0,0.713085 -0.09579,1.31974 -0.08515,0.606655 -0.223505,1.043021 -0.13836,0.436365 -0.372507,0.819516 -0.234148,0.38315 -0.447009,0.627941 -0.202218,0.234147 -0.52151,0.468295 -0.319292,0.234147 -0.542797,0.361864 -0.212861,0.127717 -0.542796,0.298006 z"
         style="font-weight:bold;-inkscape-font-specification:'sans-serif Bold'"
         id="path221" />
      <path
         d="m 70.265235,18.504209 v 6.055905 H 66.74238 v -6.055905 q 0,-1.564531 -0.585369,-2.447905 -0.585369,-0.883375 -2.000896,-0.883375 h -4.097581 v -2.53305 h 4.086937 q 1.404885,0 2.469192,0.287363 1.07495,0.27672 1.756106,0.776944 0.691799,0.500224 1.117522,1.255882 0.425723,0.745014 0.596012,1.607103 0.180932,0.851445 0.180932,1.937038 z"
         style="font-weight:bold;-inkscape-font-specification:'sans-serif Bold'"
         id="path223" />
      <path
         d="m 53.619478,22.027064 v -4.746808 q 0,-1.415528 -0.436366,-1.756106 -0.436365,-0.351221 -1.128165,-0.351221 h -1.628389 v -2.53305 h 1.628389 q 3.065204,0 4.076295,1.21331 1.011091,1.213309 1.011091,3.19292 v 7.514005 h -6.960565 v -2.53305 z"
         style="font-weight:bold;-inkscape-font-specification:'sans-serif Bold'"
         id="path225" />
      <path
         d="m 36.398996,12.639879 h 5.545038 q 3.19292,0 4.640377,1.341026 1.447457,1.330384 1.447457,4.523304 0,3.214206 -1.447457,4.778737 -1.447457,1.553888 -4.374301,1.553888 -2.926843,0 -4.3743,-1.553888 -1.436814,-1.564531 -1.436814,-4.778737 z m 5.545038,2.628838 h -2.043469 v 3.309993 q 0,3.650572 2.309545,3.650572 2.309546,0 2.309546,-3.725073 0,-0.947233 -0.159646,-1.585817 -0.159646,-0.638584 -0.510867,-1.000448 -0.340579,-0.361865 -0.79823,-0.500225 -0.447009,-0.149002 -1.106879,-0.149002 z"
         style="font-weight:bold;-inkscape-font-specification:'sans-serif Bold'"
         id="path227" />
      <path
         d="m 25.096058,12.639879 v 6.226194 q 0,1.851894 0.585369,2.607552 0.585369,0.755657 1.724177,0.755657 1.138808,0 1.724177,-0.755657 0.585368,-0.755658 0.585368,-2.607552 0,-2.022183 -0.393793,-2.884271 -0.38315,-0.872731 -1.277168,-0.872731 -0.510867,0 -1.309097,0.287362 v -2.596908 q 1.138808,-0.298006 2.032826,-0.298006 2.181828,0 3.320636,1.617746 1.138809,1.607103 1.138809,4.672307 0,3.19292 -1.426171,4.619091 -1.426171,1.426171 -4.395587,1.426171 -2.969416,0 -4.395587,-1.426171 -1.415527,-1.426171 -1.415527,-4.619091 v -6.151693 z"
         style="font-weight:bold;-inkscape-font-specification:'sans-serif Bold'"
         id="path229" />
      <path
         d="M 17.645911,12.639879 V 24.560114 H 14.123055 V 12.639879 Z"
         style="font-weight:bold;-inkscape-font-specification:'sans-serif Bold'"
         id="path231" />
    </g>
  </g>
</svg>
